<?xml version="1.0" encoding="UTF-8" standalone="no"?>
<svg width="427px" height="128px" viewBox="0 0 427 128" version="1.1" xmlns="http://www.w3.org/2000/svg" xmlns:xlink="http://www.w3.org/1999/xlink" xmlns:sketch="http://www.bohemiancoding.com/sketch/ns">
    <!-- Generator: Sketch 3.4.4 (17249) - http://www.bohemiancoding.com/sketch -->
    <title>     Danny + van der Jagt</title>
    <desc>Created with Sketch.</desc>
    <defs></defs>
    <g id="Page-1" stroke="none" stroke-width="1" fill="none" fill-rule="evenodd" sketch:type="MSPage">
        <g id="Desktop-HD-Copy-5" sketch:type="MSArtboardGroup" transform="translate(-466.000000, -195.000000)" fill="#FFFFFF">
            <g id="-----Danny-+-van-der-Jagt" sketch:type="MSLayerGroup" transform="translate(466.000000, 195.000000)">
                <path d="M158.482688,88.2955651 C154.952293,88.2955651 151.849009,80.2668854 149.172743,64.2092853 C147.122836,51.6251377 146.097898,41.6604644 146.097898,34.3149665 C146.097898,33.5747225 146.368368,32.9341363 146.909316,32.3931888 C147.450263,31.8522413 148.090849,31.5817716 148.831093,31.5817716 C149.571337,31.5817716 150.211923,31.8522413 150.752871,32.3931888 C151.293818,32.9341363 151.564288,33.5747225 151.564288,34.3149665 C151.564288,42.172941 152.332991,50.6571485 153.870421,59.7678436 C155.578677,70.3020849 157.884787,78.3877055 160.788821,84.0249481 C161.07353,84.5374247 161.215882,85.0783641 161.215882,85.6477825 C161.215882,87.4129797 160.304827,88.2955651 158.482688,88.2955651 L158.482688,88.2955651 Z M104.075027,107.000867 C98.0961336,107.000867 95.1067316,105.662754 95.1067316,102.986487 C95.1067316,100.537988 97.5836647,98.6589355 102.537605,97.349273 C106.011058,96.4382035 109.512929,95.9826756 113.043323,95.9826756 C117.143136,95.9826756 119.193011,96.8937315 119.193011,98.7158705 C119.193011,99.3991726 118.794424,100.224817 117.997239,101.192828 C145.557091,99.9401077 170.269481,96.7798828 192.135149,91.7120586 C228.179337,83.3416075 246.20116,71.2985881 246.20116,55.582639 C246.20116,50.0592801 243.781168,45.0200025 238.941111,40.4646549 C225.559778,27.994391 197.801045,18.969244 155.66408,13.3889433 C127.591751,9.68772339 96.9859688,7.83714121 63.8458153,7.83714121 C46.9340875,7.83714121 28.7699116,8.4350216 9.35274268,9.63080034 C3.54467456,9.9724514 0.640684051,8.69127912 0.640684051,5.78724506 C0.640684051,4.07898972 1.75103336,2.65546497 3.97176529,1.51662808 C5.79390431,0.60555857 7.616016,0.150030647 9.43815502,0.150030647 C10.178399,0.150030647 10.8047499,0.420500351 11.3172265,0.961447873 C11.8297031,1.50239539 12.0859375,2.11451104 12.0859375,2.79781317 C12.0859375,3.25334793 11.9720556,3.65193486 11.7442882,3.99358593 C28.7129578,2.96863273 46.0514894,2.45616381 63.760403,2.45616381 C104.359938,2.45616381 140.175821,4.99003788 171.209126,10.057862 C224.848344,18.8838479 251.66755,34.0586218 251.66755,55.582639 C251.66755,68.6792632 241.33276,79.5549924 220.662871,88.2101527 C204.605271,94.9292904 183.30934,99.968568 156.774441,103.328137 C137.528097,105.776636 119.961802,107.000867 104.075027,107.000867 L104.075027,107.000867 Z M260.294196,72.9213439 C261.03444,73.6046461 262.685729,73.946292 265.248112,73.946292 C269.063216,73.946292 273.390731,73.4480583 278.230788,72.4515761 C283.070844,71.4550938 287.284478,70.2166273 290.871814,68.7361393 C291.156523,68.6222556 291.441228,68.5653146 291.725937,68.5653146 C292.978658,68.5653146 293.605009,69.1916655 293.605009,70.4443861 C293.605009,72.323467 289.448316,74.0886377 281.134807,75.7399511 C274.244844,77.1634972 269.063214,77.8752596 265.589761,77.8752596 C259.496984,77.8752596 256.450641,76.2239709 256.450641,72.9213439 C256.450641,65.4050205 266.984724,61.4476216 288.053207,61.0490287 C282.472906,59.9671337 272.96376,59.4261943 259.525485,59.4261943 C258.215823,59.4261943 257.561001,58.7713729 257.561001,57.4617105 C257.561001,56.3228736 258.215823,55.6680522 259.525485,55.4972267 C260.208787,55.383343 263.82454,55.326402 270.372852,55.326402 C275.611502,55.326402 280.394545,55.6680479 284.722125,56.3513501 C292.124565,57.5471288 295.825729,59.511593 295.825729,62.2448015 C295.825729,63.9530568 292.864798,64.9210537 286.942846,65.148821 C277.148849,65.6043558 271.597102,65.9460017 270.28744,66.1737691 C264.137721,67.1987223 260.806673,69.4478914 260.294196,72.9213439 L260.294196,72.9213439 Z M343.31499,82.6583506 C338.873526,82.6583506 334.745305,81.1209439 330.930201,78.0460843 C328.766411,76.337829 326.175596,73.4907795 323.157678,69.5048504 C320.823063,66.4869326 319.228715,64.9779964 318.374587,64.9779964 C314.502542,64.9779964 311.199964,70.8144479 308.466756,82.487526 C307.840395,85.1068508 306.786987,86.4164936 305.306499,86.4164936 C303.826011,86.4164936 303.085778,85.0214393 303.085778,82.2312889 C303.085778,79.6689059 302.772603,76.45174 302.146243,72.5796946 C301.405999,68.1382307 300.551884,65.0918877 299.583872,63.4405742 C299.242221,62.9280976 299.071398,62.3871582 299.071398,61.8177398 C299.071398,60.2233682 299.840102,59.4261943 301.377532,59.4261943 C303.427438,59.4261943 305.221079,63.5544161 306.758509,71.8109835 C309.947252,64.0668927 313.84771,60.1949053 318.459999,60.1949053 C320.680731,60.1949053 323.271546,62.017017 326.232522,65.6612951 C330.332335,70.6721774 332.666916,73.4338154 333.236334,73.946292 C335.798717,75.9961984 339.272118,77.3058412 343.65664,77.8752596 C345.137128,78.103027 345.87736,78.9002009 345.87736,80.2668051 C345.87736,81.8611768 345.023246,82.6583506 343.31499,82.6583506 L343.31499,82.6583506 Z M385.337861,82.6583506 C380.896397,82.6583506 376.768176,81.1209439 372.953072,78.0460843 C370.789282,76.337829 368.198467,73.4907795 365.180549,69.5048504 C362.845934,66.4869326 361.251586,64.9779964 360.397458,64.9779964 C356.525413,64.9779964 353.222835,70.8144479 350.489627,82.487526 C349.863267,85.1068508 348.809858,86.4164936 347.32937,86.4164936 C345.848882,86.4164936 345.108649,85.0214393 345.108649,82.2312889 C345.108649,79.6689059 344.795474,76.45174 344.169114,72.5796946 C343.42887,68.1382307 342.574755,65.0918877 341.606743,63.4405742 C341.265092,62.9280976 341.094269,62.3871582 341.094269,61.8177398 C341.094269,60.2233682 341.862973,59.4261943 343.400403,59.4261943 C345.450309,59.4261943 347.24395,63.5544161 348.78138,71.8109835 C351.970123,64.0668927 355.870581,60.1949053 360.482871,60.1949053 C362.703602,60.1949053 365.294418,62.017017 368.255393,65.6612951 C372.355206,70.6721774 374.689787,73.4338154 375.259205,73.946292 C377.821588,75.9961984 381.294989,77.3058412 385.679511,77.8752596 C387.159999,78.103027 387.900232,78.9002009 387.900232,80.2668051 C387.900232,81.8611768 387.046117,82.6583506 385.337861,82.6583506 L385.337861,82.6583506 Z M407.54507,127.072767 C400.541223,127.072767 394.306184,124.880539 388.839767,120.496017 C382.974757,115.769844 380.042296,109.990333 380.042296,103.157312 C380.042296,99.1144412 382.020996,95.2993948 385.978454,91.7120586 C389.935912,88.1247224 393.936017,86.3310812 397.978888,86.3310812 C399.060783,86.3310812 399.957603,86.5873157 400.669376,87.0997923 C401.381149,87.6122689 401.737031,88.1816788 401.737031,88.8080391 C401.737031,90.1746434 400.484329,90.8579352 397.978888,90.8579352 C395.188737,90.8579352 392.242041,92.2102838 389.13871,94.9150214 C386.03538,97.619759 384.483738,100.367162 384.483738,103.157312 C384.483738,108.737613 386.989142,113.435245 392.000024,117.250348 C396.612313,120.837684 401.822414,122.631326 407.630482,122.631326 C412.015004,122.631326 415.545345,120.980037 418.221612,117.67741 C420.727053,114.60255 421.979755,110.815974 421.979755,106.317569 C421.979755,101.477512 418.81953,95.0716505 412.498985,87.0997923 C407.601987,81.4056079 402.676591,75.7399793 397.722651,70.1027367 C394.989442,71.8679339 392.056981,72.7505193 388.92518,72.7505193 C384.085123,72.7505193 381.665131,69.6472353 381.665131,63.4405742 C381.665131,60.3657146 382.490775,58.8283079 384.142089,58.8283079 C385.565635,58.8283079 386.277397,59.7108933 386.277397,61.4760904 C386.277397,61.8746833 386.248927,62.3871523 386.191985,63.0135125 C386.135043,63.6398728 386.106572,64.0954008 386.106572,64.38011 C386.106572,67.0563767 387.273863,68.3944899 389.608478,68.3944899 C391.430617,68.3944899 393.338141,67.7111981 395.331105,66.3445938 C395.046396,65.6612917 394.904043,64.9779998 394.904043,64.2946976 C394.904043,62.2447912 395.985922,61.2198534 398.149712,61.2198534 C400.313502,61.2198534 401.395381,62.3586732 401.395381,64.636347 C401.395381,65.376591 401.253029,66.1168238 400.968319,66.8570678 C406.206969,72.9498452 411.44554,79.0710016 416.68419,85.2207208 C423.17556,93.4772883 426.421197,100.509501 426.421197,106.317569 C426.421197,112.068695 424.741437,116.908679 421.381869,120.837666 C417.851474,124.994421 413.239254,127.072767 407.54507,127.072767 L407.54507,127.072767 Z" id="-----Danny" sketch:type="MSShapeGroup"></path>
                <path d="M209.788158,113.266388 C208.707164,113.266388 207.663461,112.576798 206.657019,111.197599 C205.948781,110.228432 205.343061,109.054267 204.83984,107.675067 C204.541634,106.892279 204.392534,106.267921 204.392534,105.801975 C204.392534,105.261478 204.560272,104.991234 204.895753,104.991234 C205.361699,104.991234 205.641262,105.233522 205.734451,105.718105 C205.958105,106.780461 206.442681,107.991902 207.188194,109.352464 C208.101448,110.992592 208.968094,111.812644 209.788158,111.812644 C210.123639,111.812644 210.34729,111.607631 210.459117,111.197599 C210.459117,111.178961 210.487073,110.824848 210.542986,110.135248 C210.654813,108.905152 210.850508,107.954637 211.130075,107.283675 C211.521469,106.351784 212.145827,105.6156 213.003167,105.075103 C213.133632,104.981914 213.264095,104.93532 213.39456,104.93532 C213.879143,104.93532 214.121431,105.177609 214.121431,105.662192 C214.121431,105.885846 214.018925,106.090859 213.813909,106.277237 C213.012482,106.929561 212.49995,107.609832 212.276296,108.318069 C212.164469,108.65355 212.089919,109.287227 212.052643,110.219118 C212.015367,111.039183 211.856948,111.719453 211.577381,112.25995 C211.2419,112.930912 210.645498,113.266388 209.788158,113.266388 L209.788158,113.266388 Z M216.973005,109.715899 C217.215297,109.939553 217.755785,110.051379 218.594488,110.051379 C219.843222,110.051379 221.259676,109.8883 222.843891,109.562138 C224.428107,109.235976 225.807285,108.830609 226.981468,108.346026 C227.074657,108.30875 227.167845,108.290113 227.261034,108.290113 C227.671066,108.290113 227.876079,108.495126 227.876079,108.905158 C227.876079,109.520206 226.515538,110.09797 223.794416,110.638467 C221.539238,111.104413 219.843222,111.337382 218.706314,111.337382 C216.712067,111.337382 215.714958,110.796893 215.714958,109.715899 C215.714958,107.255706 219.162904,105.960396 226.0589,105.829932 C224.232393,105.475813 221.119923,105.298756 216.721395,105.298756 C216.292725,105.298756 216.078394,105.084424 216.078394,104.655754 C216.078394,104.282998 216.292725,104.068666 216.721395,104.012753 C216.945049,103.975477 218.128534,103.956839 220.271884,103.956839 C221.986564,103.956839 223.552118,104.068665 224.968593,104.292319 C227.39151,104.683713 228.602951,105.326708 228.602951,106.221324 C228.602951,106.780459 227.633799,107.097297 225.695465,107.171849 C222.489758,107.320951 220.672597,107.432776 220.243927,107.507328 C218.231042,107.842809 217.140745,108.578992 216.973005,109.715899 L216.973005,109.715899 Z M244.146822,112.902952 C242.693071,112.902952 241.341849,112.399738 240.093114,111.393295 C239.384877,110.834161 238.536869,109.902283 237.549064,108.597635 C236.784913,107.60983 236.263061,107.115935 235.983494,107.115935 C234.716122,107.115935 233.635144,109.026284 232.740528,112.847039 C232.535512,113.704379 232.190717,114.133042 231.706134,114.133042 C231.22155,114.133042 230.979262,113.676422 230.979262,112.763169 C230.979262,111.924467 230.876756,110.871445 230.67174,109.604073 C230.429448,108.150322 230.149885,107.153214 229.833042,106.612717 C229.721215,106.444976 229.665302,106.267919 229.665302,106.081541 C229.665302,105.559682 229.916909,105.298756 230.42013,105.298756 C231.091092,105.298756 231.678175,106.649978 232.181396,109.352464 C233.225114,106.817719 234.501787,105.550366 236.011451,105.550366 C236.738326,105.550366 237.586334,106.146767 238.555501,107.339588 C239.897425,108.979717 240.661564,109.883638 240.847943,110.051379 C241.686645,110.72234 242.823535,111.151004 244.258648,111.337382 C244.743232,111.411934 244.98552,111.672859 244.98552,112.120167 C244.98552,112.642026 244.705956,112.902952 244.146822,112.902952 L244.146822,112.902952 Z M266.568016,109.659986 L266.28845,108.318069 C265.337921,108.373983 264.061249,108.606952 262.458396,109.016984 C260.426873,109.538843 259.467039,110.051376 259.578866,110.554597 C259.672055,110.945992 260.082081,111.141686 260.808956,111.141686 C261.647658,111.141686 262.84978,110.890079 264.415358,110.386858 C265.906384,109.920912 266.62393,109.678624 266.568016,109.659986 L266.568016,109.659986 Z M269.755069,110.219118 C269.307761,110.219118 269.08411,109.986149 269.08411,109.520203 C269.08411,109.352463 269.130704,109.203362 269.223893,109.072897 C269.242531,108.700141 268.702042,108.47649 267.60241,108.401939 C267.86334,109.706587 268.105628,110.759608 268.329282,111.561035 C268.534298,111.6915 268.711355,111.938447 268.860458,112.301885 C269.00956,112.665323 269.08411,113.014777 269.08411,113.350258 C269.08411,113.946668 268.851141,114.244869 268.385195,114.244869 C267.751509,114.244869 267.183064,113.089341 266.679843,110.77825 C266.195259,111.132369 265.319294,111.439888 264.051922,111.700818 C262.915015,111.94311 261.9645,112.064254 261.200349,112.064254 C259.317928,112.064254 258.376732,111.523765 258.376732,110.442771 C258.376732,109.473604 259.411116,108.634914 261.479915,107.926677 C262.933665,107.423455 264.406032,107.097298 265.897058,106.948196 C265.431112,104.394813 264.629697,99.1576624 263.49279,91.2365856 C263.306412,89.8201107 263.09208,88.6832203 262.849788,87.8258802 C262.83115,87.7513289 262.821832,87.6674599 262.821832,87.5742708 C262.821832,87.0710495 263.045482,86.8194426 263.49279,86.8194426 C263.66053,86.8194426 263.81895,86.884674 263.968052,87.0151388 C264.191706,87.201517 264.657645,89.7362236 265.365882,94.6193344 C266.167309,100.024304 266.819623,104.133884 267.322844,106.948196 C269.522108,107.097298 270.621723,107.805525 270.621723,109.072897 C270.621723,109.352465 270.547173,109.613391 270.398071,109.855682 C270.248968,110.097974 270.034636,110.219118 269.755069,110.219118 L269.755069,110.219118 Z M277.80657,111.169643 C276.035976,111.169643 274.843173,111.095092 274.228125,110.94599 C272.867564,110.647785 271.98228,109.958195 271.572248,108.877201 C271.479059,108.63491 271.432465,108.373984 271.432465,108.094416 C271.432465,107.143887 271.861128,106.225988 272.718469,105.340691 C273.575809,104.455394 274.442455,104.012753 275.318433,104.012753 C275.952119,104.012753 276.455332,104.2597 276.828089,104.753603 C277.200846,105.247505 277.387221,105.82061 277.387221,106.472934 C277.387221,108.113062 276.045318,109.016983 273.36147,109.184724 C274.05107,109.65067 275.532755,109.883639 277.80657,109.883639 C278.216602,109.883639 278.421615,110.097971 278.421615,110.526641 C278.421615,110.955311 278.216602,111.169643 277.80657,111.169643 L277.80657,111.169643 Z M275.318433,105.298756 C274.759298,105.298756 274.200171,105.610935 273.641036,106.235302 C273.081902,106.85967 272.774382,107.460731 272.718469,108.038503 C273.38943,107.926676 274.060382,107.805532 274.731344,107.675067 C275.644597,107.470051 276.101217,107.069344 276.101217,106.472934 C276.101217,105.690145 275.840292,105.298756 275.318433,105.298756 L275.318433,105.298756 Z M282.223713,109.324507 C282.391454,110.051382 282.475323,110.610509 282.475323,111.001903 C282.475323,111.766054 282.205078,112.148124 281.664581,112.148124 C281.049533,112.148124 280.742013,111.598316 280.742013,110.498684 C280.742013,109.995463 280.797926,109.566799 280.909753,109.21268 C280.574272,108.057135 280.238796,107.274358 279.903315,106.864326 C279.791488,106.733861 279.735576,106.584761 279.735576,106.41702 C279.735576,106.006988 279.940589,105.801975 280.350621,105.801975 C280.742015,105.801975 281.198635,106.444971 281.720494,107.730981 C282.913315,106.295868 284.814345,105.298759 287.423641,104.739624 C287.628657,104.702349 287.805714,104.739624 287.954816,104.851451 C288.103919,104.963278 288.178469,105.121697 288.178469,105.326713 C288.178469,105.643556 288.02005,105.848569 287.703207,105.941758 C286.324008,106.314515 285.280305,106.687266 284.572068,107.060022 C283.416522,107.656433 282.633745,108.411253 282.223713,109.324507 L282.223713,109.324507 Z M311.885668,89.0559707 C311.885668,89.9692242 312.239781,91.0315645 312.948018,92.2430233 C313.544429,93.2308281 314.280612,94.1627055 315.15659,95.0386834 C315.473433,95.3741643 316.684874,96.1942165 318.790948,97.4988644 C322.350773,99.7167659 325.025261,101.515289 326.814493,102.894489 C330.020199,105.410595 331.539159,107.358219 331.371419,108.737418 C331.166403,110.321634 329.232757,111.747406 325.570424,113.014778 C321.908091,114.282151 317.803171,114.934465 313.255541,114.97174 C309.770267,115.009016 306.834853,114.636265 304.449211,113.853476 C301.616262,112.940223 300.069345,111.570363 299.808416,109.743856 C299.882967,109.147445 300.069342,108.625594 300.367548,108.178286 C301.057147,107.078654 302.203356,106.42634 303.80621,106.221324 C304.290793,106.146773 304.505125,105.86721 304.449211,105.382626 C304.37466,104.898043 304.095097,104.683711 303.610513,104.739624 C301.728093,105.000554 300.311639,105.764693 299.36111,107.032066 C298.541046,108.11306 298.196251,109.082212 298.326716,109.939552 C298.624921,112.026989 300.097287,113.648456 302.743859,114.804001 C305.39043,115.959546 308.903608,116.509354 313.283498,116.45344 C318.166608,116.397527 322.499838,115.707938 326.283317,114.384652 C330.383639,112.930901 332.573551,111.104422 332.853119,108.905158 C333.058135,107.190478 331.772144,105.140347 328.995108,102.754706 C327.094049,101.114577 323.953622,98.9433023 319.573733,96.2408173 C318.56729,95.6071312 317.439719,94.8616293 316.190984,94.0042892 C315.352282,93.1655869 314.672011,92.2849628 314.150152,91.3623903 C313.628293,90.4398179 313.367367,89.671019 313.367367,89.0559707 C313.367367,88.5527493 313.11576,88.3011424 312.612539,88.3011424 C312.127956,88.3011424 311.885668,88.5527493 311.885668,89.0559707 L311.885668,89.0559707 Z M335.788562,109.715899 C336.030854,109.939553 336.571343,110.051379 337.410045,110.051379 C338.658779,110.051379 340.075233,109.8883 341.659448,109.562138 C343.243664,109.235976 344.622842,108.830609 345.797025,108.346026 C345.890214,108.30875 345.983402,108.290113 346.076591,108.290113 C346.486624,108.290113 346.691637,108.495126 346.691637,108.905158 C346.691637,109.520206 345.331096,110.09797 342.609973,110.638467 C340.354796,111.104413 338.658779,111.337382 337.521871,111.337382 C335.527624,111.337382 334.530515,110.796893 334.530515,109.715899 C334.530515,107.255706 337.978461,105.960396 344.874457,105.829932 C343.04795,105.475813 339.93548,105.298756 335.536953,105.298756 C335.108282,105.298756 334.893951,105.084424 334.893951,104.655754 C334.893951,104.282998 335.108282,104.068666 335.536953,104.012753 C335.760606,103.975477 336.944091,103.956839 339.087441,103.956839 C340.802121,103.956839 342.367675,104.068665 343.78415,104.292319 C346.207068,104.683713 347.418508,105.326708 347.418508,106.221324 C347.418508,106.780459 346.449356,107.097297 344.511022,107.171849 C341.305315,107.320951 339.488154,107.432776 339.059484,107.507328 C337.046599,107.842809 335.956302,108.578992 335.788562,109.715899 L335.788562,109.715899 Z M353.98831,114.244869 C353.72738,113.312977 353.596917,112.297231 353.596917,111.197599 C353.596917,110.377535 353.671467,109.566801 353.82057,108.765375 C354.118775,108.411256 354.267876,108.010549 354.267876,107.563241 C354.267876,106.910917 354.062863,106.58476 353.65283,106.58476 C353.242798,106.58476 352.916641,107.078655 352.674349,108.06646 C352.487971,108.196925 352.199089,108.262156 351.807695,108.262156 C351.360387,108.262156 350.917745,108.178287 350.479756,108.010547 C350.041767,107.842806 349.79482,107.647112 349.738906,107.423458 C349.738906,107.050701 350.055744,106.598741 350.689431,106.067563 C351.323117,105.536385 351.779737,105.2708 352.059304,105.2708 C352.730266,105.252162 353.298711,105.475812 353.764657,105.941758 C353.895122,106.072223 354.044222,106.137454 354.211962,106.137454 C354.640632,106.137454 354.854964,105.923123 354.854964,105.494452 C354.854964,105.326712 354.789733,105.177612 354.659268,105.047147 C353.951031,104.338909 353.084385,103.984796 352.059304,103.984796 C351.444256,103.984796 350.708073,104.348228 349.850733,105.075103 C348.918841,105.87653 348.452902,106.659307 348.452902,107.423458 C348.452902,108.09442 348.834972,108.62559 349.599123,109.016984 C350.232809,109.333827 350.959674,109.492247 351.779738,109.492247 C352.02203,109.492247 352.236362,109.473609 352.42274,109.436333 C352.348189,110.070019 352.310914,110.685059 352.310914,111.281469 C352.310914,112.623393 352.506608,113.86279 352.898002,114.999697 C350.065052,114.552389 347.353289,114.328739 344.762631,114.328739 C343.308881,114.328739 341.994933,114.403289 340.82075,114.552391 C337.279563,114.999699 334.996463,116.089996 333.971383,117.823314 C333.729091,118.233346 333.607947,118.652691 333.607947,119.081361 C333.607947,119.547307 333.747729,119.994608 334.027296,120.423278 C334.921912,121.877028 337.121142,123.07915 340.625054,124.029679 C343.905312,124.924295 347.371896,125.371596 351.02491,125.371596 C351.938163,125.371596 352.814128,125.334321 353.65283,125.25977 C359.095076,124.8311 362.384603,123.265546 363.521511,120.563061 C363.6147,120.339407 363.661294,120.106437 363.661294,119.864146 C363.661294,118.932254 362.934429,117.972421 361.480679,116.984616 C360.287858,116.164551 358.843448,115.465643 357.147406,114.887871 C355.56319,114.347374 354.510169,114.133042 353.98831,114.244869 L353.98831,114.244869 Z M362.011854,120.087799 C361.154514,122.13796 358.312288,123.3494 353.485091,123.722157 C352.646389,123.796708 351.789061,123.833983 350.913083,123.833983 C347.632826,123.833983 344.548312,123.428617 341.659448,122.617871 C338.770585,121.807125 336.888193,120.851951 336.012215,119.752319 C335.807199,119.472752 335.704692,119.202507 335.704692,118.941578 C335.704692,118.32653 336.217225,117.748766 337.242305,117.208269 C338.006456,116.798236 338.779914,116.509354 339.562703,116.341614 C341.333297,115.95022 343.402065,115.754525 345.769069,115.754525 C348.41564,115.754525 350.996941,115.978176 353.513047,116.425484 C353.941717,117.208272 354.314468,117.599661 354.631311,117.599661 C354.761776,117.599661 354.892239,117.553067 355.022704,117.459878 C355.246358,117.2735 355.30227,117.031212 355.190444,116.733006 C356.569643,117.031212 357.380376,117.264181 357.622668,117.431921 C357.753133,117.506473 357.892914,117.543748 358.042017,117.543748 C358.452049,117.543748 358.666381,117.338735 358.685019,116.928703 C359.374618,117.20827 360.026933,117.562383 360.641981,117.991053 C361.611148,118.643377 362.095724,119.23046 362.095724,119.752319 C362.095724,119.864146 362.067768,119.975972 362.011854,120.087799 L362.011854,120.087799 Z M366.037605,105.466496 L364.276339,105.466496 C362.785313,105.485134 361.750929,105.494452 361.173156,105.494452 C361.042691,103.891599 360.819041,101.45008 360.502198,98.1698228 C360.092166,93.8085712 359.887153,91.0968079 359.887153,90.0344517 C359.887153,89.6430574 359.90579,89.3821317 359.943066,89.2516669 C360.092168,88.804359 359.961706,88.4875207 359.551673,88.3011424 C359.141641,88.133402 358.84344,88.2359085 358.657062,88.6086651 C358.526597,88.8882325 358.461366,89.400765 358.461366,90.1462782 C358.461366,91.24591 358.666379,93.966992 359.076411,98.3096058 C359.393254,101.515312 359.607586,103.910237 359.719413,105.494452 C357.818355,105.475815 356.252801,105.447858 355.022704,105.410583 C352.711613,105.317394 351.379029,105.168293 351.02491,104.963277 C350.968996,104.926001 350.782621,104.907364 350.465778,104.907364 C350.298037,104.907364 350.148937,104.963276 350.018472,105.075103 C349.888007,105.18693 349.850732,105.336031 349.906646,105.522409 C350.037111,105.932441 350.34463,106.239961 350.829214,106.444977 C350.847851,106.463615 351.481528,106.528846 352.730263,106.640673 C354.892251,106.827051 357.259219,106.920239 359.831239,106.920239 C359.99898,109.678638 359.99898,111.616943 359.831239,112.735212 C359.775326,113.201158 359.980339,113.471402 360.446285,113.545954 C360.930868,113.601867 361.201113,113.396854 361.257026,112.930909 C361.424767,111.738088 361.424767,109.734551 361.257026,106.920239 L364.276339,106.920239 L366.037605,106.892283 C366.522188,106.892283 366.755158,106.659313 366.73652,106.193368 C366.73652,105.708784 366.503551,105.466496 366.037605,105.466496 L366.037605,105.466496 Z" id="van-der-Jagt" sketch:type="MSShapeGroup"></path>
            </g>
        </g>
    </g>
</svg>