<svg xmlns="http://www.w3.org/2000/svg" xmlns:xlink="http://www.w3.org/1999/xlink" viewBox="0 0 38 48" version="1.1">
  <path height="40px" class="icon icon-500px-svg" d="M6.53 31.54C6.54 31.57 6.79 32.26 6.93 32.6 7.72 34.47 8.86 36.15 10.3 37.59 11.74 39.03 13.42 40.16 15.29 40.96 17.23 41.78 19.29 42.19 21.41 42.19 23.53 42.19 25.59 41.78 27.52 40.96 29.4 40.16 31.08 39.03 32.52 37.59 33.96 36.15 35.09 34.47 35.88 32.6 36.7 30.66 37.12 28.6 37.12 26.48 37.12 24.36 36.7 22.3 35.88 20.36 35.09 18.49 33.96 16.81 32.52 15.37 31.08 13.93 29.4 12.79 27.52 12 25.59 11.18 23.53 10.77 21.41 10.77 19.26 10.77 17.12 11.19 15.21 12 13.68 12.65 11.1 14.31 9.58 15.87L9.57 15.88 9.57 2.95 31.29 2.95C32.08 2.94 32.08 1.84 32.08 1.48 32.08 1.11 32.08 0.01 31.29 0L7.81 0C7.17 0 6.77 0.53 6.77 1.02L6.77 19.23C6.77 19.81 7.5 20.24 8.18 20.38 9.51 20.67 9.82 20.24 10.14 19.79L10.18 19.73C10.68 19 12.23 17.43 12.25 17.42 14.67 15 17.9 13.67 21.36 13.67 24.8 13.67 28.02 15 30.44 17.42 32.87 19.85 34.21 23.06 34.21 26.48 34.21 29.91 32.88 33.12 30.46 35.54 28.08 37.92 24.74 39.29 21.32 39.29 19 39.29 16.76 38.67 14.85 37.5L14.85 26.44C14.85 24.96 15.49 23.36 16.57 22.15 17.79 20.76 19.48 20 21.32 20 23.11 20 24.78 20.68 26.02 21.91 27.25 23.13 27.93 24.75 27.93 26.49 27.93 30.19 25.02 33.08 21.31 33.08 20.59 33.08 19.29 32.77 19.24 32.75 18.49 32.53 18.17 33.57 18.07 33.91 17.66 35.23 18.27 35.49 18.39 35.53 19.59 35.9 20.37 35.97 21.4 35.97 26.64 35.97 30.9 31.71 30.9 26.47 30.9 21.26 26.64 17.03 21.41 17.03 18.84 17.03 16.43 18.01 14.62 19.79 12.9 21.49 11.91 23.75 11.91 26L11.91 26.05C11.9 26.33 11.89 32.97 11.89 35.14L11.88 35.13C10.9 34.04 9.92 32.37 9.28 30.67 9.02 30 8.45 30.12 7.67 30.36 7.33 30.46 6.3 30.78 6.53 31.53L6.53 31.54 6.53 31.54ZM17.69 28.94C17.7 29.26 17.99 29.54 18.16 29.7L18.22 29.76C18.51 30.05 18.8 30.2 19.06 30.2 19.28 30.2 19.41 30.09 19.46 30.05 19.59 29.93 21.07 28.42 21.22 28.28L22.87 29.93C23.03 30.1 23.19 30.19 23.39 30.2 23.65 30.2 23.94 30.04 24.24 29.73 24.96 29 24.6 28.6 24.43 28.41L22.75 26.73 24.5 24.97C24.88 24.56 24.55 24.11 24.21 23.78 23.72 23.29 23.24 23.16 22.94 23.44L21.2 25.18 19.44 23.42C19.34 23.33 19.23 23.28 19.1 23.28 18.86 23.28 18.59 23.44 18.27 23.76 17.73 24.3 17.61 24.67 17.9 24.97L19.66 26.73 17.91 28.48C17.76 28.62 17.69 28.78 17.69 28.94L17.69 28.94ZM21.53 5.14C18.71 5.14 15.72 5.71 13.52 6.66 13.29 6.75 13.15 6.94 13.11 7.21 13.09 7.46 13.15 7.79 13.32 8.22 13.46 8.57 13.82 9.49 14.52 9.23 16.77 8.37 19.26 7.89 21.53 7.89 24.1 7.89 26.59 8.4 28.94 9.39 30.8 10.18 32.56 11.32 34.47 12.97 34.61 13.09 34.76 13.15 34.91 13.15 35.28 13.15 35.64 12.79 35.94 12.45 36.46 11.87 36.81 11.4 36.3 10.92 34.48 9.19 32.48 7.9 30.01 6.86 27.32 5.72 24.47 5.14 21.53 5.14L21.53 5.14ZM36.69 39.9L36.69 39.9C36.36 39.56 36.07 39.36 35.82 39.29 35.56 39.21 35.33 39.27 35.15 39.45L34.99 39.61C33.24 41.36 31.21 42.73 28.95 43.68 26.61 44.67 24.12 45.17 21.56 45.17 18.99 45.17 16.5 44.67 14.16 43.68 11.9 42.73 9.87 41.36 8.13 39.61 6.31 37.79 4.94 35.76 4.06 33.58 3.2 31.44 2.91 29.84 2.82 29.31 2.81 29.26 2.81 29.22 2.8 29.19 2.68 28.57 2.11 28.53 1.29 28.65 0.95 28.71-0.09 28.86 0.01 29.61L0.01 29.63C0.28 31.36 0.77 33.06 1.45 34.68 2.55 37.27 4.13 39.61 6.13 41.61 8.13 43.61 10.47 45.19 13.06 46.28 15.75 47.42 18.61 48 21.56 48 24.5 48 27.36 47.42 30.05 46.28 32.65 45.19 34.98 43.61 36.98 41.61 36.99 41.6 37.1 41.49 37.16 41.43 37.38 41.19 37.57 40.77 36.69 39.9L36.69 39.9Z"/>
</svg>