<svg width="17px" height="16px" viewBox="0 0 17 16" version="1.1" xmlns="http://www.w3.org/2000/svg" xmlns:xlink="http://www.w3.org/1999/xlink" xmlns:sketch="http://www.bohemiancoding.com/sketch/ns">
    <g class='icon icon-dribbble-svg' stroke="none" stroke-width="1" fill="none" fill-rule="evenodd">
        <g sketch:type="MSArtboardGroup" transform="translate(-1342.000000, -21.000000)" fill="#343434">
            <path class='icon-twitter-svg' d="M1350.47059,37 C1345.79988,37 1342,33.4112233 1342,29 C1342,24.5887767 1345.79988,21 1350.47059,21 C1355.14129,21 1358.94118,24.58878 1358.94118,29 C1358.94118,33.41122 1355.1413,37 1350.47059,37 L1350.47059,37 Z M1357.61427,30.0950867 C1357.36675,30.02129 1355.37482,29.4602133 1353.10755,29.80298 C1354.05388,32.25898 1354.43899,34.2593167 1354.51313,34.6749933 C1356.13629,33.63843 1357.2918,31.9964067 1357.61427,30.0950867 L1357.61427,30.0950867 Z M1353.2968,35.30059 C1353.18918,34.7010733 1352.76911,32.61169 1351.75332,30.1187067 C1351.73741,30.12383 1351.72151,30.1286967 1351.7056,30.1339333 C1347.6247,31.4769567 1346.15977,34.14978 1346.02957,34.4011633 C1347.25632,35.3046433 1348.79799,35.8436533 1350.47059,35.8436533 C1351.47285,35.8436533 1352.4281,35.65006 1353.2968,35.30059 L1353.2968,35.30059 Z M1345.09539,33.5793267 C1345.25929,33.3143567 1347.24497,30.20924 1350.97643,29.0700967 C1351.07074,29.04131 1351.16582,29.01426 1351.26154,28.9888 C1351.07992,28.6006233 1350.88209,28.2120033 1350.67495,27.8291633 C1347.06177,28.8504167 1343.55564,28.80776 1343.23908,28.8016233 C1343.23687,28.8710033 1343.2354,28.9405467 1343.2354,29.0104167 C1343.2354,30.7654733 1343.93983,32.36791 1345.09539,33.5793267 L1345.09539,33.5793267 Z M1343.38823,27.61089 C1343.71184,27.6149267 1346.6927,27.62715 1350.07706,26.7783433 C1348.87823,24.7656533 1347.58532,23.0735 1347.39457,22.82645 C1345.37042,23.72815 1343.8574,25.49048 1343.38823,27.61089 L1343.38823,27.61089 Z M1348.77509,22.36714 C1348.97508,22.6200433 1350.28915,24.3101133 1351.47475,26.3673967 C1354.0475,25.4566767 1355.13662,24.0741033 1355.26675,23.8990533 C1353.98906,22.8284467 1352.30896,22.1771833 1350.47059,22.1771833 C1349.88682,22.1771833 1349.31917,22.24328 1348.77509,22.36714 L1348.77509,22.36714 Z M1356.07108,24.6892367 C1355.91855,24.8841067 1354.70614,26.3520133 1352.03102,27.38351 C1352.19937,27.7089933 1352.36078,28.0400333 1352.51103,28.37327 C1352.56429,28.4913733 1352.61616,28.6089133 1352.66691,28.7259067 C1355.07432,28.4400067 1357.46638,28.8982167 1357.70492,28.9458633 C1357.68899,27.33303 1357.07876,25.8520133 1356.07108,24.6892367 L1356.07108,24.6892367 Z"></path>
        </g>
    </g>
</svg>