<svg viewBox="0 0 40 34" version="1.1" xmlns="http://www.w3.org/2000/svg" xmlns:xlink="http://www.w3.org/1999/xlink" xmlns:sketch="http://www.bohemiancoding.com/sketch/ns">

    <g id="Page-1" stroke="none" stroke-width="1" fill="none" fill-rule="evenodd" sketch:type="MSPage">
        <g id="Desktop-HD-Copy-4" sketch:type="MSArtboardGroup" transform="translate(-743.000000, -2639.000000)">
            <g id="Group" sketch:type="MSLayerGroup" transform="translate(743.000000, 2638.827208)">
                <path class='icon icon-twitter-svg' d="M27.7704673,0.352088889 C27.1745794,0.051 26.6871028,0.355488889 26.6871028,1.02868889 L26.6871028,27.8089778 L37.5614953,33.3037556 C38.7581308,33.9082 39.7282243,33.4850889 39.7282243,32.3585556 L39.7282243,6.56993333 C39.7282243,6.46226667 39.6676636,6.36328889 39.5723364,6.31493333 L27.7704673,0.352088889" id="Fill-1" fill="#00F9A2" sketch:type="MSShapeGroup"></path>
                <path class='icon icon-twitter-svg' d="M13.6463551,21.2197778 L26.0523364,0.846977778 C26.4014953,0.273511111 27.1745794,0.051 27.7704673,0.352088889 L39.5857944,6.32211111 C39.6624299,6.36064444 39.6897196,6.45735556 39.6448598,6.53102222 L26.6871028,27.8089778 L13.6463551,21.2197778" id="Fill-2" fill="#00E587" sketch:type="MSShapeGroup"></path>
                <path class='icon icon-twitter-svg' d="M2.41084112,0.717022222 C1.41757009,0.214955556 1.08149533,0.586311111 1.66317757,1.54208889 L13.6463551,21.2197778 L26.6871028,27.8089778 L13.6743925,6.43997778 C13.6560748,6.40975556 13.6295327,6.38557778 13.5981308,6.36971111 L2.41084112,0.717022222" id="Fill-3" fill="#00CE7E" sketch:type="MSShapeGroup"></path>
                <path class='icon icon-twitter-svg' d="M13.2725234,32.3585556 C13.2725234,33.4805556 12.4598131,33.9879111 11.4669159,33.4862222 L1.31476636,28.3563778 C0.718878505,28.0552889 0.231401869,27.2581778 0.231401869,26.5849778 L0.231401869,1.43668889 C0.231401869,0.539088889 0.881495327,0.132977778 1.67588785,0.534555556 L13.202243,6.35837778 C13.2452336,6.38028889 13.2725234,6.42448889 13.2725234,6.47322222 L13.2725234,32.3585556" id="Fill-4" fill="#00B781" sketch:type="MSShapeGroup"></path>
            </g>
        </g>
    </g>
</svg>