<?xml version="1.0" encoding="UTF-8" standalone="no"?>
<svg width="90px" height="59px" viewBox="0 0 90 59" version="1.1" xmlns="http://www.w3.org/2000/svg" xmlns:xlink="http://www.w3.org/1999/xlink" xmlns:sketch="http://www.bohemiancoding.com/sketch/ns">
    <!-- Generator: Sketch 3.4.4 (17249) - http://www.bohemiancoding.com/sketch -->
    <title>Group + Group</title>
    <desc>Created with Sketch.</desc>
    <defs>
        <path id="path-1" d="M0.128042385,0.472230096 C0.128042385,0.706731601 0.290628578,0.896591765 0.490982669,0.896591765 L0.490982669,0.896591765 C0.69133676,0.896591765 0.853922954,0.706731601 0.853922954,0.472230096 L0.853922954,0.472230096 C0.853922954,0.238804285 0.69133676,0.0489441215 0.490982669,0.0489441215 L0.490982669,0.0489441215 C0.290628578,0.0489441215 0.128042385,0.238804285 0.128042385,0.472230096"></path>
    </defs>
    <g id="Page-1" stroke="none" stroke-width="1" fill="none" fill-rule="evenodd" sketch:type="MSPage">
        <g id="Desktop-HD-Copy-3" sketch:type="MSArtboardGroup" transform="translate(-188.000000, -1124.000000)">
            <g id="Group-+-Group" sketch:type="MSLayerGroup" transform="translate(188.290907, 1124.000000)">
                <g id="Group">
                    <g>
                        <path d="M80.4862001,50.8775463 C80.4862001,51.6093854 79.934881,52.1712065 79.2545982,52.1712065 L10.0836149,52.1712065 C9.40333212,52.1712065 8.85201294,51.6093854 8.85201294,50.8775463 L8.8008881,2.50663323 C8.77555597,1.67024564 9.77318117,0.386228282 10.6174319,0.386228282 L78.5549709,0.386228282 C79.7570955,0.386228282 80.5244286,1.80219999 80.5244286,2.53403913 L80.4862001,50.8775463 Z" id="Fill-12" fill="#404041" sketch:type="MSShapeGroup"></path>
                        <path d="M76.6782995,47.6726093 L12.6599135,47.6726093 L12.6599135,4.98707676 L76.6782995,4.98707676 L76.6782995,47.6726093 Z" id="Fill-13" fill="#F0F1F1" sketch:type="MSShapeGroup"></path>
                        <path d="M0.157428376,54.9045827 C0.157428376,54.9045827 -0.0212782619,58.0451046 3.65095891,58.0451046 L85.9978721,58.1196254 C85.9978721,58.1196254 89.0777981,58.2340682 89.0777981,54.9232129 L0.157428376,54.9045827 Z" id="Fill-14" fill="#AAAAAA" sketch:type="MSShapeGroup"></path>
                        <path d="M89.077706,55.3009003 L0.157336259,55.3009003 L0.157336259,52.085379 L89.077706,52.085379 L89.077706,55.3009003 Z" id="Fill-16" fill="#CDCECF" sketch:type="MSShapeGroup"></path>
                        <path d="M35.8597715,52.2922221 C35.8597715,52.8929978 36.3344996,53.3802876 36.9206164,53.3802876 L49.2237648,53.3802876 C49.8093512,53.3802876 50.2846097,52.8929978 50.2846097,52.2922221 C50.2846097,52.2513457 50.2819576,52.2110072 50.2777142,52.1712065 L35.866667,52.1712065 C35.8624236,52.2110072 35.8597715,52.2513457 35.8597715,52.2922221" id="Fill-17" fill="#A6A9AB" sketch:type="MSShapeGroup"></path>
                        <path d="M51.9553022,2.08604149 C51.9553022,2.34904891 51.7452549,2.56203652 51.4858783,2.56203652 C51.2265017,2.56203652 51.0164544,2.34904891 51.0164544,2.08604149 C51.0164544,1.82303407 51.2265017,1.61004646 51.4858783,1.61004646 C51.7452549,1.61004646 51.9553022,1.82303407 51.9553022,2.08604149" id="Fill-18" fill="#262B33" sketch:type="MSShapeGroup"></path>
                        <g id="Group-22" transform="translate(79.241011, 23.665290)">
                            <mask id="mask-2" sketch:name="Clip 21" fill="white">
                                <use xlink:href="#path-1"></use>
                            </mask>
                            <g id="Clip-21"></g>
                            <path d="M0.128042385,0.472230096 C0.128042385,0.706731601 0.290628578,0.896591765 0.490982669,0.896591765 L0.490982669,0.896591765 C0.69133676,0.896591765 0.853922954,0.706731601 0.853922954,0.472230096 L0.853922954,0.472230096 C0.853922954,0.238804285 0.69133676,0.0489441215 0.490982669,0.0489441215 L0.490982669,0.0489441215 C0.290628578,0.0489441215 0.128042385,0.238804285 0.128042385,0.472230096" id="Fill-20" sketch:type="MSShapeGroup" mask="url(#mask-2)"></path>
                        </g>
                        <path id="Fill-23" fill="#11233C" sketch:type="MSShapeGroup" d="M79.8938429,24.1377885 C79.8938429,24.242131 79.8210706,24.3271109 79.7317173,24.3271109 C79.642364,24.3271109 79.5700523,24.242131 79.5700523,24.1377885 C79.5700523,24.0334461 79.642364,23.9484662 79.7317173,23.9484662 C79.8210706,23.9484662 79.8938429,24.0334461 79.8938429,24.1377885"></path>
                        <path id="Stroke-25" stroke="#141415" stroke-width="0.5" stroke-linecap="round" stroke-linejoin="bevel" sketch:type="MSShapeGroup" d="M79.8938429,24.1377885 C79.8938429,24.242131 79.8210706,24.3271109 79.7317173,24.3271109 C79.642364,24.3271109 79.5700523,24.242131 79.5700523,24.1377885 C79.5700523,24.0334461 79.642364,23.9484662 79.7317173,23.9484662 C79.8210706,23.9484662 79.8938429,24.0334461 79.8938429,24.1377885 L79.8938429,24.1377885 Z"></path>
                        <path d="M76.6782995,47.6726093 L12.6599135,47.6726093 L12.6599135,33.1812376 L76.6782995,33.1812376 L76.6782995,47.6726093 Z" id="Fill-13" fill="#FFFFFF" sketch:type="MSShapeGroup"></path>
                        <ellipse id="Oval" fill="#ED69AB" sketch:type="MSShapeGroup" cx="63.9239405" cy="31.618913" rx="4.6773615" ry="4.74283695"></ellipse>
                    </g>
                    <g transform="translate(0.000000, 13.639531)" sketch:type="MSShapeGroup">
                        <path d="M0.0231868992,8.58601412 L0.433098153,8.58601412 L0.433098153,6.54412747 L0.0231868992,6.54412747 L0.0231868992,8.58601412 Z" id="Fill-5" fill="#535353"></path>
                        <path d="M0,12.3154452 L0.318819864,12.3154452 L0.318819864,10.8433678 L0,10.8433678 L0,12.3154452 Z" id="Fill-6" fill="#535353"></path>
                        <path d="M0,16.0255179 L0.501830747,16.0255179 L0.501830747,14.5534405 L0,14.5534405 L0,16.0255179 Z" id="Fill-7" fill="#535353"></path>
                        <path d="M2.86333362,45.0184567 L21.9776196,45.0184567 C23.3365375,45.0184567 24.4387433,44.0690551 24.4387433,42.8982949 L24.4387433,2.57650435 C24.4387433,1.40574411 23.3365375,0.456342571 21.9776196,0.456342571 L2.86333362,0.456342571 C1.50441571,0.456342571 0.402209891,1.40574411 0.402209891,2.57650435 L0.402209891,42.8982949 C0.402209891,44.0690551 1.50441571,45.0184567 2.86333362,45.0184567" id="Fill-8" fill="#444444"></path>
                        <path d="M22.4608496,38.4386786 L2.38060052,38.4386786 L2.38060052,7.71353258 L22.4608496,7.71353258 L22.4608496,38.4386786 Z" id="Fill-10" fill="#E6E6E6"></path>
                        <path d="M22.5653812,38.1648902 L2.48513216,38.1648902 L2.48513216,27.3631907 L22.5653812,27.3631907 L22.5653812,38.1648902 Z" id="Fill-10" fill="#FFFFFF"></path>
                        <path d="M10.7183926,4.70491448 L14.1227262,4.70491448 C14.3653606,4.70491448 14.5624492,4.53489753 14.5624492,4.32616386 L14.5624492,4.31858885 C14.5624492,4.10901351 14.3653606,3.93899657 14.1227262,3.93899657 L10.7183926,3.93899657 C10.4757582,3.93899657 10.2786696,4.10901351 10.2786696,4.31858885 L10.2786696,4.32616386 C10.2786696,4.53489753 10.4757582,4.70491448 10.7183926,4.70491448" id="Fill-12" fill="#F0F0F1"></path>
                        <path d="M13.7251537,41.3510303 C13.7251537,40.4277205 12.9881416,39.6786359 12.079712,39.6786359 C11.1704543,39.6786359 10.4342703,40.4277205 10.4342703,41.3510303 C10.4342703,42.2743402 11.1704543,43.0234247 12.079712,43.0234247 C12.9881416,43.0234247 13.7251537,42.2743402 13.7251537,41.3510303" id="Fill-17" fill="#F0F0F1"></path>
                        <path d="M12.8451281,2.58046019 C12.8451281,2.34226814 12.6546643,2.14868449 12.420311,2.14868449 C12.1859577,2.14868449 11.996322,2.34226814 11.996322,2.58046019 C11.996322,2.81865224 12.1859577,3.01223589 12.420311,3.01223589 C12.6546643,3.01223589 12.8451281,2.81865224 12.8451281,2.58046019" id="Fill-20" fill="#F0F0F1"></path>
                        <ellipse id="Oval" fill="#ED69AB" cx="18.6384912" cy="27.2790622" rx="2.48513216" ry="2.47991475"></ellipse>
                    </g>
                </g>
            </g>
        </g>
    </g>
</svg>